<svg xmlns="http://www.w3.org/2000/svg" viewBox="56.06 56 399.83 399.93"><path style="fill: #fff;" d="M193 363.8a10 10 0 0 1 5.1.7 7 7 0 0 1 3.5 4l.1.4c.6 1.7.4 3.7.4 5.4v74c0 .9-.1 1.8-.5 2.7l-.1.4-.5 1a8 8 0 0 1-5.2 3.5c-1.2 0-2.4.1-3.5-.1a7.9 7.9 0 0 1-4.5-3.4 7 7 0 0 1-.8-3.3l-.1-17.1v-58.7c0-1.4 0-3 .3-4.4l.1-.3.5-1.2c1.2-2.2 2.9-3 5.2-3.6M317 56c1.2.2 2.3.2 3.4.6 1.9.7 3.2 1.8 4 3.6.6 1.3.7 2.4.7 3.8v73.8c0 1.8.2 4-.4 5.6l-.2.4a7 7 0 0 1-.5 1c-1.4 2.3-3.4 3-5.9 3.6-1.5 0-3.6-.4-4.8-1.2a6.8 6.8 0 0 1-3.2-4.5c-.6-3.2-.2-7-.2-10.2V80.2c0-5.7-.3-11.6.1-17.2.1-1.5.4-2.8 1.3-4 1.5-2 3.4-2.6 5.8-3M64 309.9h76.2c1.3 0 2.7.2 4 .8a7 7 0 0 1 3.5 3.7v.2c.7 1.8.7 4.1 0 5.9l-.1.3a7 7 0 0 1-2.7 3.1c-1.4 1-2.8 1.1-4.5 1.3H73.5c-3.4 0-7 .2-10.5-.1-1.8-.2-3-.6-4.4-1.7a6.4 6.4 0 0 1-2.5-4.7c-.2-2.3.3-4.8 2-6.6 1.5-1.8 3.7-2 6-2.2M371 186.8H437c3.7 0 7.6-.3 11.3 0a9 9 0 0 1 4.5 1.4 6.9 6.9 0 0 1 3 5c.3 1.9-.2 4.4-1.4 6a7.5 7.5 0 0 1-5.2 2.8c-4.4.5-9 .2-13.3.2h-50.5c-4.7 0-9.5.3-14 0a9.2 9.2 0 0 1-5-1.7 6 6 0 0 1-2.5-3.7c-.4-2.3-.3-5 1.1-7 1.6-2.1 3.3-2.6 5.8-3M154.4 348.5c2.1-.2 4.2 0 6 1.3a7 7 0 0 1 3 4.8c.4 2 .1 4-1 5.7l-.3.3c-2 2.7-4.8 5.1-7.1 7.5l-14.2 14-26.7 26.9-13.7 13.6a10.6 10.6 0 0 1-4 2.4c-1.2.2-2 .3-3.2 0h-.5c-.6-.1-1.2-.3-1.7-.6-1.8-.8-3.1-2-3.7-4-.7-1.8-.5-4.8.5-6.5 1.2-2.4 3.8-4.5 5.7-6.4l9.2-9.3 27.9-27.8 13.4-13.5c2.2-2.2 4.3-4.6 6.7-6.6a9 9 0 0 1 3.7-1.8M415.6 87c1.4 0 3-.1 4.3.2 1.7.5 3.3 1.7 4.1 3.3 1 1.9 1.5 4.3.7 6.4v.4l-.2.3a8 8 0 0 1-1.6 2.6l-11.6 11.6-22.4 22.4-18.3 18.2c-3 3-6 6.4-9.2 9.1-1 1-2.3 1.6-3.7 2.1-1.2.2-2.4.3-3.5 0a8 8 0 0 1-5-3.8c-1-1.9-1.2-4.3-.4-6.3l.1-.3.4-1c1.2-2.3 3.7-4.3 5.5-6.2l8.8-8.7 25.6-25.6L403.9 97c2.7-2.8 5.4-5.7 8.3-8.3 1-.9 2.2-1.2 3.4-1.6M337.8 209.1h.8a83 83 0 0 1 18 14.7l12.1 12.2 31.4 31.4 21.6 21.6c4.5 4.4 9.2 8.8 13.3 13.6 11 12.7 17 27.9 17.1 44.8a67.2 67.2 0 0 1-20 49.4l-25 24.7c-5.3 5.3-10.5 11-16.3 15.7a67 67 0 0 1-43.4 15 67.1 67.1 0 0 1-43.8-15.7c-3.3-2.7-6.2-5.9-9.2-8.9l-13.3-13.3-32.3-32.4-19.3-19.4c-4.9-5-10-9.7-14.5-15-2.5-3-4.6-6.2-6.7-9.6 2.3-.5 4.7-.5 7-.7l12.8-1 26.4-2 8.4-.6c.6 0 2-.3 2.6 0 1.5.7 3.1 2.7 4.3 3.9l7.8 7.9L315 383l11 11.1c2.1 2.1 4.2 4.5 6.5 6.4 2.5 2 5.2 3.5 8.3 4.4 5.5 1.5 13 1.3 18-1.7l.4-.2 1.4-.9c2.1-1.5 4-3.5 5.8-5.3l11.4-11.3 15.3-15.1c3-3 6-5.7 8.6-9a20.5 20.5 0 0 0 3.7-8.8 24 24 0 0 0-2.2-15.4c-1.7-3-4.2-5.5-6.6-8l-8-7.9-38.7-38.8-10.2-10.3c-2.1-2-4.6-4.1-6.3-6.5l.7-11 2-25 1-13.4c.1-2.3.1-4.7.6-7zM161.1 59.9c6-.3 12 .1 17.8 1.3a64.5 64.5 0 0 1 25.3 11c6.5 4.8 12 10.8 17.7 16.5l24.7 24.7L279 146c5.8 5.8 11.9 11.5 17.2 17.6 3 3.3 5.1 7 7.5 10.6-.5.4-1.3.4-2 .5l-5.8.4-15.8 1.2-24.5 1.8-7 .6c-.5 0-1.8.3-2 .2-.5-.2-1.6-1.5-2-2l-7.3-7.2-41.6-41.9-10.8-10.8c-2.4-2.4-4.8-5.1-7.5-7-4-2.6-8-3.8-12.8-3.8-8.2 0-13.5 3.3-19.1 8.8l-22.6 22.4-7.7 7.7c-2.2 2.2-4.4 4.3-6 6.9A22.8 22.8 0 0 0 106 164c0 3.7 1 7.6 2.7 10.8 1.7 3.1 4.2 5.5 6.7 8l7 6.9 55.2 55.2c.7.7.8 1.3.8 2.2l-4.4 56.5-11.4-8.4c-5.3-4.6-10-9.9-15-14.8L124.4 257 94.3 227c-8.5-8.5-17.7-16.6-24.2-26.8-5.8-9.2-9.3-20-10-30.8a68.1 68.1 0 0 1 16.5-50.8c2.8-3.1 5.9-6 8.8-9l14.2-14.1 12.1-12c3.6-3.5 7-7 11-10A68.3 68.3 0 0 1 161 59.9"/></svg>